<?xml version="1.0" encoding="UTF-8"?>
<svg width="384px" height="372px" viewBox="0 0 384 372" version="1.1" xmlns="http://www.w3.org/2000/svg" xmlns:xlink="http://www.w3.org/1999/xlink">
    <!-- Generator: Sketch 41.1 (35376) - http://www.bohemiancoding.com/sketch -->
    <title>Group</title>
    <desc>Created with Sketch.</desc>
    <defs>
        <polygon id="path-1" points="0.0808997727 0.264808498 0.0808997727 27.8062164 28.0466029 27.8062164 28.0466029 0.264808498 0.0808997727 0.264808498"></polygon>
    </defs>
    <g id="Page-1" stroke="none" stroke-width="1" fill="none" fill-rule="evenodd">
        <g id="Desktop" transform="translate(-89.000000, -75.000000)">
            <g id="Group" transform="translate(89.000000, 75.000000)">
                <path d="M191.9424,102.827027 C238.231579,102.827027 275.756463,140.263122 275.756463,186.442538 C275.756463,232.620946 238.231579,270.057041 191.9424,270.057041 C145.6512,270.057041 108.126316,232.620946 108.126316,186.442538 C108.126316,140.263122 145.6512,102.827027 191.9424,102.827027" id="Fill-25" fill="#FFFFFF"></path>
                <path d="M275.688758,186.5 L300.655832,186.5 C300.976168,187.154262 301.155032,187.889173 301.155032,188.666424 C301.155032,191.526427 297.605053,193.191822 297.605053,197.791819 C297.605053,202.633762 301.538021,206.558327 306.391579,206.558327 C311.245137,206.558327 315.180126,202.633762 315.180126,197.791819 C315.180126,192.726076 311.607916,192.163551 311.607916,188.666424 C311.607916,187.889173 311.787789,187.153254 312.107116,186.5 L340.811116,186.5 C340.811116,223.819154 327.016421,257.921435 304.240168,284.01833 C304.321011,285.166565 304.801011,286.291614 305.681179,287.169676 C307.708295,289.192949 311.398737,287.86527 314.659705,291.117427 C318.091453,294.540962 318.091453,300.091605 314.659705,303.516149 C311.226947,306.938676 305.662989,306.938676 302.231242,303.515141 C298.640842,299.934341 300.769011,297.015868 298.290189,294.543986 C297.518147,293.773792 296.555116,293.31107 295.553684,293.154814 C268.741389,319.1015 232.181558,335.080014 191.874695,335.080014 L191.874695,307.4639 C191.015747,306.7552 189.915284,306.329778 188.713768,306.329778 C185.847916,306.329778 184.177516,309.87227 179.567495,309.87227 C174.713937,309.87227 170.778947,305.946697 170.778947,301.104754 C170.778947,296.263819 174.713937,292.338246 179.567495,292.338246 C184.644379,292.338246 185.209263,295.901908 188.713768,295.901908 C189.915284,295.901908 191.016758,295.476486 191.874695,294.767786 L191.874695,270.114503 C213.872842,270.114503 233.888337,261.655468 248.843116,247.825232 C248.631916,246.986486 248.197389,246.193105 247.540547,245.536827 C245.513432,243.513554 241.820968,244.841232 238.56,241.589076 C235.130274,238.165541 235.130274,232.614897 238.56,229.190354 C241.992758,225.766819 247.555705,225.767827 250.988463,229.190354 C254.578863,232.772162 252.452716,235.691643 254.929516,238.163524 C255.482274,238.714959 256.134063,239.108122 256.826274,239.345027 C268.617095,224.942186 275.688758,206.545222 275.688758,186.5" id="Fill-26" fill="#EAB306"></path>
                <path d="M191.379537,269.570124 L191.379537,294.223408 C190.5216,294.932108 189.420126,295.35753 188.218611,295.35753 C184.714105,295.35753 184.149221,291.793868 179.072337,291.793868 C174.218779,291.793868 170.283789,295.719441 170.283789,300.560376 C170.283789,305.402319 174.218779,309.327892 179.072337,309.327892 C183.682358,309.327892 185.352758,305.7854 188.218611,305.7854 C189.420126,305.7854 190.520589,306.210822 191.379537,306.919522 L191.379537,334.535635 C151.145432,334.535635 114.6432,318.615592 87.8440421,292.75157 C87.0750316,292.977386 86.3494737,293.393735 85.7431579,293.999608 C83.2643368,296.471489 85.3914947,299.389962 81.8010947,302.970762 C78.3693474,306.394297 72.8053895,306.394297 69.3736421,302.97177 C65.9408842,299.547227 65.9408842,293.996584 69.3736421,290.573049 C72.6325895,287.320892 76.3250526,288.64857 78.3521684,286.625297 C79.0383158,285.940792 79.4809263,285.10507 79.6810105,284.226 C56.5096421,258.034343 42.4421053,223.636686 42.4421053,185.955622 L70.0375579,185.955622 C70.5589895,185.171314 70.8631579,184.232765 70.8631579,183.221632 C70.8631579,180.36163 67.3111579,178.696235 67.3111579,174.096238 C67.3111579,169.254295 71.2461474,165.32973 76.0997053,165.32973 C80.9532632,165.32973 84.8882526,169.254295 84.8882526,174.096238 C84.8882526,179.159965 81.3150316,179.724505 81.3150316,183.221632 C81.3150316,184.232765 81.6192,185.172322 82.1406316,185.955622 L107.563453,185.955622 C107.563453,205.997819 114.634105,224.390751 126.419874,238.791576 C127.101979,238.55467 127.743663,238.163524 128.288337,237.619146 C130.767158,235.147265 128.641011,232.227784 132.231411,228.645976 C135.663158,225.223449 141.227116,225.222441 144.658863,228.645976 C148.090611,232.070519 148.090611,237.621162 144.658863,241.044697 C141.398905,244.296854 137.707453,242.969176 135.679326,244.992449 C135.028547,245.64167 134.597053,246.425978 134.383832,247.254643 C149.339621,261.101008 169.366232,269.570124 191.379537,269.570124" id="Fill-27" fill="#123248"></path>
                <path d="M192,102.265511 L192,75.7411784 C192.876126,74.9578784 194.0352,74.4810432 195.303411,74.4810432 C198.171284,74.4810432 199.841684,78.0235351 204.451705,78.0235351 C209.305263,78.0235351 213.240253,74.0989703 213.240253,69.257027 C213.240253,64.4150838 209.305263,60.4905189 204.451705,60.4905189 C199.375832,60.4905189 198.808926,64.0541811 195.303411,64.0541811 C194.0352,64.0541811 192.876126,63.5773459 192,62.7950541 L192,37.3 C232.211874,37.3 268.696926,53.2049216 295.494063,79.0447486 C296.562189,78.9197432 297.595958,78.4479486 298.415495,77.630373 C300.894316,75.1574838 298.766147,72.2390108 302.356547,68.6572027 C305.788295,65.2336676 311.352253,65.2336676 314.785011,68.6572027 C318.216758,72.0807378 318.216758,77.6323892 314.785011,81.0559243 C311.524042,84.3080811 307.8336,82.9804027 305.806484,85.0036757 C304.8768,85.9311351 304.393768,87.1358243 304.355368,88.3505946 C327.137684,114.448497 340.936421,148.555819 340.936421,185.881022 L312.232421,185.881022 C311.913095,186.534276 311.733221,187.270195 311.733221,188.047446 C311.733221,191.544573 315.305432,192.107097 315.305432,197.172841 C315.305432,202.014784 311.370442,205.939349 306.516884,205.939349 C301.663326,205.939349 297.730358,202.014784 297.730358,197.172841 C297.730358,192.572843 301.280337,190.907449 301.280337,188.047446 C301.280337,187.270195 301.101474,186.535284 300.781137,185.881022 L275.814063,185.881022 C275.814063,165.679543 268.636295,147.151524 256.681768,132.699286 C256.081516,132.941232 255.518653,133.304151 255.0336,133.789051 C252.554779,136.261941 254.681937,139.180414 251.091537,142.761214 C247.659789,146.185757 242.095832,146.185757 238.664084,142.762222 C235.231326,139.338686 235.231326,133.787035 238.664084,130.3635 C241.924042,127.111343 245.615495,128.438014 247.6416,126.415749 C248.216589,125.844151 248.618779,125.168719 248.852211,124.44893 C233.912589,110.681197 213.943579,102.265511 192,102.265511 L274.604479,103.235563" id="Fill-28" fill="#B0CF5A"></path>
                <path d="M79.7163789,87.5703189 C79.5365053,86.6307622 79.0817684,85.7315297 78.3521684,85.0036757 C76.3250526,82.9804027 72.6325895,84.3080811 69.3736421,81.0559243 C65.9408842,77.6323892 65.9408842,72.0807378 69.3736421,68.6572027 C72.8053895,65.2336676 78.3693474,65.2336676 81.8010947,68.6572027 C85.3914947,72.2390108 83.2643368,75.1574838 85.7431579,77.630373 C86.3939368,78.2785865 87.1791158,78.7100568 88.0097684,78.9227676 C114.793768,53.1535081 151.229305,37.3 191.379537,37.3 L191.379537,62.7950541 C192.255663,63.5773459 193.414737,64.0541811 194.682947,64.0541811 C198.188463,64.0541811 198.755368,60.4905189 203.831242,60.4905189 C208.6848,60.4905189 212.619789,64.4150838 212.619789,69.257027 C212.619789,74.0989703 208.6848,78.0235351 203.831242,78.0235351 C199.221221,78.0235351 197.550821,74.4810432 194.682947,74.4810432 C193.414737,74.4810432 192.255663,74.9578784 191.379537,75.7411784 L191.379537,102.265511 C169.423832,102.265511 149.442695,110.691278 134.500042,124.473124 C134.734484,125.182832 135.135663,125.8502 135.702568,126.415749 C137.729684,128.438014 141.421137,127.111343 144.681095,130.3635 C148.112842,133.787035 148.112842,139.338686 144.681095,142.762222 C141.249347,146.185757 135.685389,146.185757 132.253642,142.761214 C128.663242,139.180414 130.789389,136.261941 128.311579,133.789051 C127.832589,133.311208 127.278821,132.951314 126.689684,132.710376 C114.740211,147.160597 107.563453,165.684584 107.563453,185.881022 L82.1406316,185.881022 C81.6192,185.097722 81.3150316,184.158165 81.3150316,183.147032 C81.3150316,179.649905 84.8882526,179.085365 84.8882526,174.021638 C84.8882526,169.179695 80.9532632,165.25513 76.0997053,165.25513 C71.2461474,165.25513 67.3111579,169.179695 67.3111579,174.021638 C67.3111579,178.621635 70.8631579,180.28703 70.8631579,183.147032 C70.8631579,184.158165 70.5589895,185.096714 70.0375579,185.881022 L42.4421053,185.881022 C42.4421053,148.180803 56.5237895,113.768024 79.7163789,87.5703189" id="Fill-29" fill="#366B8F"></path>
                <path d="M351.826863,8.06486486 C364.752505,8.06486486 375.233684,18.5199541 375.233684,31.4146649 C375.233684,44.3093757 364.752505,54.7634568 351.826863,54.7634568 C338.901221,54.7634568 328.421053,44.3093757 328.421053,31.4146649 C328.421053,18.5199541 338.901221,8.06486486 351.826863,8.06486486" id="Fill-30" fill="#1E415A"></path>
                <path d="M9.09473684,31.4146649 C9.09473684,44.3093757 19.5749053,54.7634568 32.5005474,54.7634568 C45.4261895,54.7634568 55.9053474,44.3093757 55.9053474,31.4146649 C55.9053474,18.5199541 45.4261895,8.06486486 32.5005474,8.06486486 C19.5749053,8.06486486 9.09473684,18.5199541 9.09473684,31.4146649 Z" id="Fill-31" fill="#FFFFFF"></path>
                <path d="M351.826863,363.245546 C364.752505,363.245546 375.233684,352.790457 375.233684,339.895746 C375.233684,327.000027 364.752505,316.545946 351.826863,316.545946 C338.901221,316.545946 328.421053,327.000027 328.421053,339.895746 C328.421053,352.790457 338.901221,363.245546 351.826863,363.245546" id="Fill-32" fill="#FFFFFF"></path>
                <path d="M32.5005474,363.245546 C19.5749053,363.245546 9.09473684,352.790457 9.09473684,339.895746 C9.09473684,327.000027 19.5749053,316.545946 32.5005474,316.545946 C45.4261895,316.545946 55.9053474,327.000027 55.9053474,339.895746 C55.9053474,352.790457 45.4261895,363.245546 32.5005474,363.245546" id="Fill-33" fill="#366B8F"></path>
                <path d="M351.422653,363.442127 C364.348295,363.442127 374.829474,352.987038 374.829474,340.092327 C374.829474,327.196608 364.348295,316.742527 351.422653,316.742527 C338.497011,316.742527 328.016842,327.196608 328.016842,340.092327 C328.016842,352.987038 338.497011,363.442127 351.422653,363.442127 Z M31.9983158,8.57194324 C19.0726737,8.57194324 8.59250526,19.0270324 8.59250526,31.9217432 C8.59250526,44.8164541 19.0726737,55.2705351 31.9983158,55.2705351 C44.9239579,55.2705351 55.4031158,44.8164541 55.4031158,31.9217432 C55.4031158,19.0270324 44.9239579,8.57194324 31.9983158,8.57194324 Z M75.7146947,292.029765 C78.2693053,292.029765 80.3408842,294.096386 80.3408842,296.644884 C80.3408842,297.847557 79.8790737,298.94337 79.1221895,299.765986 C108.004042,328.160359 147.649011,345.689343 191.402779,345.689343 C235.340463,345.689343 275.140042,328.014184 304.050189,299.406092 C300.964042,295.289986 306.068211,289.938949 310.340716,292.817097 C335.850442,264.542689 351.3792,227.129781 351.3792,186.094741 C351.3792,144.988124 335.797895,107.515738 310.210358,79.2241919 C305.992421,81.864427 301.117642,76.7674324 303.952168,72.6876189 C275.049095,44.1359811 235.291958,26.4991297 191.402779,26.4991297 C147.703579,26.4991297 108.105095,43.9847649 79.2323368,72.315627 C82.8530526,76.5396 77.1728842,82.3412622 72.8498526,78.935873 C47.1077053,107.259678 31.4243368,144.850014 31.4243368,186.094741 C31.4243368,227.273941 47.0602105,264.810846 72.7306105,293.118522 C73.5370105,292.439057 74.5778526,292.029765 75.7146947,292.029765 Z M0,340.092327 C0,322.463541 14.3272421,308.170584 31.9983158,308.170584 C40.5029053,308.170584 48.2314105,311.482219 53.9621053,316.881646 L71.7797053,299.070392 C71.0036211,297.820338 70.8762947,296.247689 71.4361263,294.889768 C45.2422737,266.162719 29.2759579,227.987681 29.2759579,186.094741 C29.2759579,144.1645 45.2746105,105.967284 71.5078737,77.2311622 C70.8742737,75.8510622 70.9682526,74.2189351 71.7584842,72.9215 L53.9621053,55.1314162 C48.2314105,60.5308432 40.5029053,63.8424784 31.9983158,63.8424784 C14.3272421,63.8424784 0,49.5495216 0,31.9217432 C0,14.2929568 14.3272421,0 31.9983158,0 C49.6693895,0 63.9956211,14.2929568 63.9956211,31.9217432 C63.9956211,40.2971054 60.7599158,47.9184027 55.4698105,53.6121973 L73.2631579,71.3992568 C74.5182316,70.6139405 76.1037474,70.4818784 77.4730105,71.0433946 C106.754021,42.1822676 146.988126,24.3558919 191.402779,24.3558919 C235.926568,24.3558919 276.255663,42.2659405 305.554863,71.2530811 C306.997895,70.4728054 308.779453,70.5222027 310.177011,71.3801027 L327.952168,53.6132054 C322.661053,47.9184027 319.425347,40.2971054 319.425347,31.9217432 C319.425347,14.2929568 333.752589,0 351.422653,0 C369.093726,0 383.419958,14.2929568 383.419958,31.9217432 C383.419958,49.5495216 369.093726,63.8424784 351.422653,63.8424784 C342.918063,63.8424784 335.189558,60.5308432 329.457853,55.1314162 L311.694821,72.8892405 C312.598232,74.3489811 312.608337,76.2230541 311.720084,77.6928757 C337.701726,106.376576 353.528589,144.390316 353.528589,186.094741 C353.528589,227.754808 337.735074,265.732257 311.800926,294.403859 C312.616421,295.865616 312.566905,297.686259 311.671579,299.101643 L329.457853,316.881646 C335.189558,311.482219 342.918063,308.170584 351.422653,308.170584 C369.093726,308.170584 383.419958,322.463541 383.419958,340.092327 C383.419958,357.720105 369.093726,372.013062 351.422653,372.013062 C333.752589,372.013062 319.425347,357.720105 319.425347,340.092327 C319.425347,331.715957 322.661053,324.094659 327.952168,318.400865 L310.143663,300.598684 C308.803705,301.40517 307.114105,301.47473 305.710484,300.783168 C276.399158,329.861038 236.0064,347.832581 191.402779,347.832581 C146.901221,347.832581 106.593347,329.940678 77.2971789,300.981765 C75.9794526,301.460616 74.4949895,301.312424 73.2975158,300.578522 L55.4698105,318.400865 C60.7609263,324.094659 63.9956211,331.715957 63.9956211,340.092327 C63.9956211,357.720105 49.6693895,372.013062 31.9983158,372.013062 C14.3272421,372.013062 0,357.720105 0,340.092327 Z" id="Fill-34" fill="#354D5E"></path>
                <path d="M32.5005474,363.245546 C19.5749053,363.245546 9.09473684,352.790457 9.09473684,339.895746 C9.09473684,327.000027 19.5749053,316.545946 32.5005474,316.545946 C45.4261895,316.545946 55.9053474,327.000027 55.9053474,339.895746 C55.9053474,352.790457 45.4261895,363.245546 32.5005474,363.245546 Z" id="Path" fill="#FFFFFF"></path>
                <path d="M351.826863,8.06486486 C364.752505,8.06486486 375.233684,18.5199541 375.233684,31.4146649 C375.233684,44.3093757 364.752505,54.7634568 351.826863,54.7634568 C338.901221,54.7634568 328.421053,44.3093757 328.421053,31.4146649 C328.421053,18.5199541 338.901221,8.06486486 351.826863,8.06486486 Z" id="Path" fill="#FFFFFF"></path>
                <g id="Group-5" transform="translate(32.000000, 341.000000) scale(-1, 1) translate(-32.000000, -341.000000) translate(19.000000, 327.000000)">
                    <path d="M15.4857456,19.9290595 C13.140314,19.9290595 10.8605666,19.0943459 9.07092452,17.5771432 C4.90452452,14.0457405 4.39319821,7.79143784 7.93206137,3.634 C9.82073505,1.41717027 12.5764403,0.145945946 15.4928193,0.145945946 C17.8402719,0.145945946 20.1200193,0.981667568 21.9076403,2.49786216 C23.9266719,4.20962973 25.1564824,6.60187027 25.3737456,9.23504865 C25.5869666,11.868227 24.7613666,14.4268054 23.0465035,16.4420135 C21.1598508,18.6578351 18.4021245,19.9290595 15.4857456,19.9290595 Z M15.4948403,2.85574054 C13.3757666,2.85574054 11.3718929,3.77916757 10.0026298,5.38911622 C7.43286137,8.40739189 7.80372452,12.9479108 10.8292403,15.5115297 C12.1297877,16.6133919 13.7819982,17.220273 15.4857456,17.220273 C17.6048193,17.220273 19.6066719,16.2968459 20.9759351,14.6868973 C22.221914,13.2251405 22.8211561,11.3671973 22.663514,9.45582432 C22.509914,7.54243514 21.6155982,5.80546486 20.1493245,4.56448378 C18.8507982,3.46262162 17.1965666,2.85574054 15.4948403,2.85574054 L15.4948403,2.85574054 Z" id="Fill-35" fill="#2A4353"></path>
                    <polyline id="Fill-36" fill="#123248" points="8.65903158 20.4290811 6.58947368 18.6759811 9.49069474 15.2675676 11.5612632 17.0216757 8.65903158 20.4290811"></polyline>
                    <path d="M4.30575479,26.9649769 C3.81969163,27.5355661 2.96377584,27.6061337 2.39080742,27.1212337 L1.00537584,25.9477958 C0.433417946,25.4618877 0.36369163,24.6080202 0.849754788,24.037431 L5.33346005,18.769058 C5.81952321,18.1994769 6.675439,18.1299175 7.24840742,18.6138094 L8.633839,19.7872472 C9.20579689,20.2721472 9.27552321,21.128031 8.78946005,21.6976121 L4.30575479,26.9649769" id="Fill-37" fill="#123248"></path>
                    <path d="M17.9272009,4.31508897 C18.1636641,5.29597816 16.5730957,4.34634032 14.8420641,4.75865653 C13.1130535,5.16996464 11.8973904,6.79100248 11.6619378,5.80708897 C11.4274957,4.82519167 13.3282957,3.5610241 14.3681272,3.28177816 C15.5565062,2.96321599 17.6917483,3.33319167 17.9272009,4.31508897" id="Fill-38" fill="#1D6193"></path>
                    <path d="M19.2943752,5.22747882 C19.1488594,5.65189233 18.6526909,5.49563557 18.2282699,5.35147611 C17.8038488,5.20630855 17.6067962,5.1256599 17.7533225,4.70124638 C17.8988383,4.27582476 17.9776594,4.08025179 18.4041015,4.22642747 C18.8305436,4.37159503 19.4409015,4.8020572 19.2943752,5.22747882" id="Fill-39" fill="#2684C9"></path>
                </g>
                <text id="IMPORT" transform="translate(110.439540, 107.658342) rotate(-46.000000) translate(-110.439540, -107.658342) " font-family="Lato-Bold, Lato" font-size="13" font-weight="bold" fill="#FFFFFF">
                    <tspan x="79.113224" y="112.658342">IMPORT</tspan>
                </text>
                <text id="VIEW" transform="translate(274.313320, 270.631024) rotate(-41.000000) translate(-274.313320, -270.631024) " font-family="Lato-Bold, Lato" font-size="13" font-weight="bold" fill="#FFFFFF">
                    <tspan x="256.62911" y="275.631024">VIEW</tspan>
                </text>
                <text id="VALIDATE" transform="translate(280.011121, 114.191617) scale(-1, -1) rotate(228.000000) translate(-280.011121, -114.191617) " font-family="Lato-Bold, Lato" font-size="13" font-weight="bold" fill="#FFFFFF">
                    <tspan x="242.550628" y="119.191617">VALIDATE</tspan>
                </text>
                <text id="SEARCH" transform="translate(107.640697, 260.708946) scale(-1, -1) rotate(230.000000) translate(-107.640697, -260.708946) " font-family="Lato-Bold, Lato" font-size="13" font-weight="bold" fill="#FFFFFF">
                    <tspan x="81.8722758" y="265.708946">SEARCH</tspan>
                </text>
                <path d="M364.998581,349.929647 L348.065581,349.929647 C347.589286,349.929647 347.203057,350.332139 347.203057,350.82849 L347.203057,351.381654 C347.203057,351.878005 347.589286,352.280713 348.065581,352.280713 L367.851841,352.280713 L367.851841,349.929647 L364.998581,349.929647 Z" id="Fill-1" fill="#E9B307"></path>
                <path d="M351.046581,330.802501 C351.046581,333.551036 348.908515,335.77908 346.271041,335.77908 C343.633619,335.77908 341.495553,333.551036 341.495553,330.802501 C341.495553,328.05402 343.633619,325.825922 346.271041,325.825922 C348.908515,325.825922 351.046581,328.05402 351.046581,330.802501 Z" id="Fill-2" fill="#E9B307"></path>
                <path d="M357.922669,343.008275 L346.979135,343.002119 L346.720026,343.001309 L346.720026,341.677778 L346.710957,340.570047 C346.710957,337.924066 344.652645,335.778918 342.113373,335.778918 C342.027349,335.778918 341.941895,335.78205 341.857062,335.786695 L341.850585,335.778918 C339.456466,335.778918 337.515789,337.801531 337.515789,340.296247 L337.515789,353.054266 L346.720026,353.054266 L346.720026,347.619301 L346.598193,347.609364 C346.589487,347.6085 346.587466,347.609364 346.581972,347.609364 C345.959333,347.609364 345.362345,347.336158 344.941914,346.857736 L341.206076,342.608105 C341.086834,342.472663 341.095747,342.262318 341.225717,342.13827 C341.355686,342.014277 341.55748,342.023512 341.676515,342.158954 L345.412353,346.408423 C345.715977,346.753725 346.143922,346.96488 346.594721,346.971847 C346.624674,346.972279 347.034015,346.978381 347.034015,346.978381 L357.922669,346.978381 C358.974704,346.978381 359.82733,346.089637 359.82733,344.993355 C359.82733,343.897019 358.974704,343.008275 357.922669,343.008275 Z" id="Fill-3" fill="#E9B307"></path>
                <path d="M369.239061,335.96453 C368.793496,335.805704 368.308703,336.05315 368.156087,336.517423 L364.540476,347.516531 L351.603252,347.516531 C351.132398,347.516531 350.750627,347.914217 350.750627,348.404844 C350.750627,348.89574 351.132398,349.293426 351.603252,349.293426 L365.139278,349.293426 C365.429377,349.293426 365.685221,349.142161 365.83908,348.911563 C365.892301,348.838388 365.935624,348.755708 365.965992,348.663901 L369.769613,337.092944 C369.921866,336.628833 369.684625,336.123572 369.239061,335.96453 Z" id="Fill-5" fill="#E9B307"></path>
                <g id="Group-4" transform="translate(338.000000, 17.000000)">
                    <g id="Group-3" transform="translate(0.189474, 0.145946)">
                        <mask id="mask-2" fill="white">
                            <use xlink:href="#path-1"></use>
                        </mask>
                        <g id="Clip-2"></g>
                        <path d="M14.0199306,0.264808498 C6.25759742,0.264808498 0,6.4096897 0,14.0322023 C0,21.6613352 6.25759742,27.8062164 14.0199306,27.8062164 C21.7890054,27.8062164 28.0466029,21.6613352 28.0466029,14.0322023 C28.0466029,6.4096897 21.7890054,0.264808498 14.0199306,0.264808498 Z M14.0199306,23.5706044 C8.62661242,23.5706044 4.31330621,19.3283723 4.31330621,14.0322023 C4.31330621,8.73603236 8.62661242,4.50042043 14.0199306,4.50042043 C19.4132488,4.50042043 23.7332966,8.73603236 23.7332966,14.0322023 C23.7332966,19.3283723 19.4132488,23.5706044 14.0199306,23.5706044 Z" id="Fill-1" fill="#B3D15F" mask="url(#mask-2)"></path>
                    </g>
                    <path d="M18.8503546,10.2629546 C18.6346219,10.0511078 18.3123711,9.94253634 18.0966384,9.94253634 C17.8809056,9.94253634 17.5546099,10.0511078 17.3388772,10.2629546 L13.4570364,13.7544547 C13.2413037,13.9663015 12.9190529,13.9663015 12.7033202,13.7544547 L11.0812797,12.3787745 C10.6552076,11.9550809 10.0066611,11.9550809 9.57519564,12.3787745 L8.06371822,13.8630262 C7.8479855,14.074873 7.74281579,14.3913191 7.74281579,14.6031659 C7.74281579,14.8150127 7.8479855,15.135431 8.06371822,15.3472778 L12.3770244,19.1591961 C12.5927572,19.3710429 12.8084899,19.4743182 13.136134,19.4743182 C13.4570364,19.4743182 13.6727691,19.3710429 13.8885019,19.1591961 L20.361832,13.2274858 C20.5775647,13.015639 20.6827344,12.6991928 20.6827344,12.487346 C20.6827344,12.2754992 20.5775647,11.9550809 20.361832,11.7432341 L18.8503546,10.2629546 Z" id="Fill-4" fill="#B0CF5A"></path>
                </g>
                <g id="import" transform="translate(21.000000, 18.000000)" fill="#366B8F">
                    <path d="M17.7881514,6.28029173 L14.159006,6.28029173 L14.159006,8.50665816 L17.7881514,8.50665816 C18.8680565,8.50665816 19.7056897,9.07519081 19.7056897,9.56628059 L19.7056897,19.4367679 C19.7056897,19.9260028 18.8680565,20.4963903 17.7881514,20.4963903 L4.06927292,20.4963903 C2.99161101,20.4963903 2.15397787,19.9260028 2.15397787,19.4367679 L2.15397787,9.56628059 C2.15397787,9.07704573 2.99161101,8.50665816 4.06927292,8.50665816 L7.69886696,8.50665816 L7.69886696,6.28029173 L4.06927292,6.28029173 C1.78742925,6.28029173 0,7.72388238 0,9.56628059 L0,19.4367679 C0,21.281021 1.78742925,22.7227568 4.06927292,22.7227568 L17.789946,22.7227568 C20.069995,22.7227568 21.8596675,21.2791661 21.8596675,19.4367679 L21.8596675,9.56628059 C21.8596675,7.72388238 20.0717896,6.28029173 17.7881514,6.28029173 Z" id="Fill-1"></path>
                    <path d="M14.188617,10.9319646 C13.9117988,10.9319646 13.6367751,11.0409411 13.4263574,11.2579666 L12.078607,12.6510108 L12.078607,1.32765822 C12.078607,0.713680054 11.5967548,0.215634324 11.0022911,0.215634324 C10.4064813,0.215634324 9.92462914,0.713680054 9.92462914,1.32765822 L9.92462914,12.7270624 L8.50329985,11.2579666 C8.2928821,11.0409411 8.01785848,10.9319646 7.74283485,10.9319646 C7.46781122,10.9319646 7.19233894,11.0409411 6.98192119,11.2579666 C6.56153434,11.6929451 6.56153434,12.3973506 6.98192119,12.8323291 L10.1965122,16.1544889 C10.4064813,16.3719781 10.6819536,16.4804909 10.9569772,16.4804909 L10.97268,16.4804909 C11.2494983,16.4804909 11.5249705,16.3719781 11.7349396,16.1544889 L14.949082,12.8323291 C15.3699175,12.3973506 15.3699175,11.6929451 14.949082,11.2579666 C14.7391129,11.0409411 14.4636406,10.9319646 14.188617,10.9319646 Z" id="Fill-2"></path>
                </g>
            </g>
        </g>
    </g>
</svg>
