<svg xmlns="http://www.w3.org/2000/svg" viewBox="0 0 139.72 31"><defs><style>.cls-1{fill:#534741;}.cls-2{fill:#18465e;}.cls-3{fill:#fff;}.cls-4{fill:#e2e2e2;}</style></defs><title>logo</title><g id="Layer_2" data-name="Layer 2"><g id="Layer_1-2" data-name="Layer 1"><path class="cls-1" d="M37.7,8.7h9.36V9.82H39v5.31h7.95v1.12H39V23H37.7Z"/><path class="cls-1" d="M56.45,21.81a4.72,4.72,0,0,1-3.63,1.49,3.54,3.54,0,0,1-3.74-3.46,3.49,3.49,0,0,1,3.74-3.44,4.68,4.68,0,0,1,3.63,1.48V15.77c0-1.55-1.28-2.38-2.88-2.38a4.23,4.23,0,0,0-3.34,1.52l-.64-.77a5.28,5.28,0,0,1,4.12-1.74c2.17,0,3.89,1,3.89,3.33V23H56.45Zm0-3.09a4,4,0,0,0-3.23-1.44,2.59,2.59,0,1,0,0,5.14A4.06,4.06,0,0,0,56.45,21Z"/><path class="cls-1" d="M65.78,12.4a4.45,4.45,0,0,1,3.78,1.76l-.79.69a3.43,3.43,0,0,0-2.93-1.44c-2.5,0-4,1.93-4,4.43s1.53,4.45,4,4.45a3.45,3.45,0,0,0,2.93-1.46l.79.68a4.39,4.39,0,0,1-3.78,1.79,5.16,5.16,0,0,1-5.21-5.46A5.14,5.14,0,0,1,65.78,12.4Z"/><path class="cls-1" d="M71.82,10a.89.89,0,0,1,.89-.86.86.86,0,1,1,0,1.72A.89.89,0,0,1,71.82,10Zm.31,2.63h1.15V23H72.13Z"/><path class="cls-1" d="M76.87,8.7H78V23H76.87Z"/><path class="cls-1" d="M81.3,10a.89.89,0,0,1,.89-.86.86.86,0,1,1-.89.86Zm.31,2.63h1.15V23H81.61Z"/><path class="cls-1" d="M86.57,21v-7.4H84.8v-1h1.77V9.82h1.18v2.84h2.17v1H87.75v7.23c0,.84.35,1.42,1.1,1.42a1.71,1.71,0,0,0,1.2-.5l.44.86a2.44,2.44,0,0,1-1.82.65C87.26,23.3,86.57,22.46,86.57,21Z"/><path class="cls-1" d="M92.86,26.24c.71,0,1.2-.28,1.62-1.27l.84-1.85L90.8,12.66h1.29L96,21.73l3.85-9.07h1.31L95.61,25.32a2.84,2.84,0,0,1-2.75,1.93,4.47,4.47,0,0,1-1.13-.15l.2-1A2.64,2.64,0,0,0,92.86,26.24Z"/><path class="cls-2" d="M116.93,14.87c0,3.76-2.64,8.17-9.57,8.17h-5.8L104.82,8.7h5.71A6.24,6.24,0,0,1,116.93,14.87Zm-3.28.19a3.58,3.58,0,0,0-3.72-3.67h-2.57l-2,9h2.61C111.5,20.35,113.65,17.92,113.65,15.06Z"/><path class="cls-2" d="M119.77,12.66h2.81L120.21,23H117.4Zm2.28-4.8a1.44,1.44,0,0,1,1.5,1.4,1.88,1.88,0,0,1-1.88,1.87,1.42,1.42,0,0,1-1.5-1.4A1.88,1.88,0,0,1,122.05,7.86Z"/><path class="cls-2" d="M125.46,15h-1.77l.53-2.38H126l.13-.56c.51-2.22,1.86-3.62,4-3.62a4.44,4.44,0,0,1,2.35.58l-1,1.85a1.77,1.77,0,0,0-1-.28c-.86,0-1.32.52-1.55,1.47l-.13.56H131L130.44,15h-2.17l-1.82,8h-2.83Zm7.24,0h-1.77l.53-2.38h1.77l.13-.56c.51-2.22,1.86-3.62,4-3.62a4.44,4.44,0,0,1,2.35.58l-1,1.85a1.77,1.77,0,0,0-1-.28c-.86,0-1.32.52-1.55,1.47l-.13.56h2.19L137.68,15h-2.17l-1.82,8h-2.83Z"/><circle class="cls-2" cx="15.5" cy="15.5" r="15.5"/><path class="cls-3" d="M8.19,15.34c0-2.93,0-5.85,0-8.78,0-.31.08-.39.4-.39h6.64c.26,0,.35.06.35.34q0,1.51,0,3c0,.26-.08.32-.33.32-1,0-2,0-3,0-.3,0-.36.09-.35.37,0,1,0,1.95,0,2.92,0,.3.06.41.38.41,2.21,0,4.41,0,6.61,0,.3,0,.39.07.39.38,0,1,0,1.95,0,2.92,0,.33-.11.39-.41.39H12.3c-.3,0-.41.06-.41.39,0,2.21,0,4.43,0,6.64,0,.26-.06.35-.34.34-1,0-2.06,0-3.09,0-.23,0-.29-.06-.29-.29C8.2,21.31,8.19,18.32,8.19,15.34Z"/><path class="cls-4" d="M15.05,24.58H13c-.19,0-.26,0-.26-.25,0-1.06,0-2.11,0-3.17,0-.22.07-.27.28-.26,1.12,0,2.25,0,3.37,0a5.52,5.52,0,0,0,.51-11c-.47,0-.47,0-.47-.52,0-1,0-1.91,0-2.86,0-.29.09-.33.35-.33a9.21,9.21,0,0,1,1.79,18.16A14.67,14.67,0,0,1,15.05,24.58Z"/></g></g></svg>